agave-i.ufo
<glyph name="slash" format="2">
  <advance width="1024"/>
  <unicode hex="002F"/>
  <outline>
    <contour>
      <point x="-0" y="-256" type="line"/>
      <point x="833" y="1437" type="line"/>
      <point x="1024" y="1437" type="line"/>
      <point x="190" y="-256" type="line"/>
    </contour>
  </outline>
</glyph>
<glyph name="one" format="2">
  <advance width="1024"/>
  <unicode hex="0031"/>
  <outline>
    <contour>
      <point x="609" y="1280" type="line"/>
      <point x="782" y="1280" type="line"/>
      <point x="556" y="0" type="line"/>
      <point x="383" y="0" type="line"/>
      <point x="567" y="1044" type="line"/>
      <point x="341" y="885" type="line"/>
      <point x="243" y="1024" type="line"/>
    </contour>
  </outline>
</glyph>
<glyph name="E" format="2">
  <advance width="1024"/>
  <unicode hex="0045"/>
  <outline>
    <contour>
      <point x="276" y="1280" type="line"/>
      <point x="1006" y="1280" type="line"/>
      <point x="978" y="1123" type="line"/>
      <point x="420" y="1123" type="line"/>
      <point x="358" y="768" type="line"/>
      <point x="850" y="768" type="line"/>
      <point x="822" y="611" type="line"/>
      <point x="330" y="611" type="line"/>
      <point x="250" y="157" type="line"/>
      <point x="808" y="157" type="line"/>
      <point x="780" y="0" type="line"/>
      <point x="50" y="0" type="line"/>
    </contour>
  </outline>
</glyph>
<glyph name="F" format="2">
  <advance width="1024"/>
  <unicode hex="0046"/>
  <outline>
    <contour>
      <point x="276" y="1280" type="line"/>
      <point x="1006" y="1280" type="line"/>
      <point x="978" y="1123" type="line"/>
      <point x="420" y="1123" type="line"/>
      <point x="358" y="768" type="line"/>
      <point x="850" y="768" type="line"/>
      <point x="822" y="611" type="line"/>
      <point x="330" y="611" type="line"/>
      <point x="222" y="0" type="line"/>
      <point x="50" y="0" type="line"/>
    </contour>
  </outline>
</glyph>
<glyph name="H" format="2">
  <advance width="1024"/>
  <unicode hex="0048"/>
  <outline>
    <contour>
      <point x="226" y="1280" type="line"/>
      <point x="398" y="1280" type="line"/>
      <point x="308" y="768" type="line"/>
      <point x="762" y="768" type="line"/>
      <point x="852" y="1280" type="line"/>
      <point x="1024" y="1280" type="line"/>
      <point x="798" y="0" type="line"/>
      <point x="626" y="0" type="line"/>
      <point x="734" y="611" type="line"/>
      <point x="280" y="611" type="line"/>
      <point x="172" y="0" type="line"/>
      <point x="0" y="0" type="line"/>
    </contour>
  </outline>
</glyph>
<glyph name="I" format="2">
  <advance width="1024"/>
  <unicode hex="0049"/>
  <outline>
    <contour>
      <point x="309" y="1280" type="line"/>
      <point x="942" y="1280" type="line"/>
      <point x="914" y="1123" type="line"/>
      <point x="684" y="1125" type="line"/>
      <point x="513" y="157" type="line"/>
      <point x="743" y="157" type="line"/>
      <point x="715" y="0" type="line"/>
      <point x="82" y="0" type="line"/>
      <point x="110" y="157" type="line"/>
      <point x="340" y="157" type="line"/>
      <point x="511" y="1125" type="line"/>
      <point x="281" y="1123" type="line"/>
    </contour>
  </outline>
</glyph>
<glyph name="L" format="2">
  <advance width="1024"/>
  <unicode hex="004C"/>
  <outline>
    <contour>
      <point x="276" y="1280" type="line"/>
      <point x="448" y="1280" type="line"/>
      <point x="250" y="157" type="line"/>
      <point x="808" y="157" type="line"/>
      <point x="780" y="0" type="line"/>
      <point x="50" y="0" type="line"/>
    </contour>
  </outline>
</glyph>
<glyph name="backslash" format="2">
  <advance width="1024"/>
  <unicode hex="005C"/>
  <outline>
    <contour>
      <point x="1024" y="-256" type="line"/>
      <point x="834" y="-256" type="line"/>
      <point x="-0" y="1437" type="line"/>
      <point x="191" y="1437" type="line"/>
    </contour>
  </outline>
</glyph>
<glyph name="i" format="2">
  <advance width="1024"/>
  <unicode hex="0069"/>
  <outline>
    <contour>
      <point x="527" y="1365" type="line"/>
      <point x="783" y="1365" type="line"/>
      <point x="753" y="1195" type="line"/>
      <point x="497" y="1195" type="line"/>
    </contour>
    <contour>
      <point x="269" y="925" type="line"/>
      <point x="680" y="925" type="line"/>
      <point x="561" y="256" type="line" smooth="yes"/>
      <point x="552" y="203"/>
      <point x="606" y="141"/>
      <point x="663" y="141" type="qcurve" smooth="yes"/>
      <point x="719" y="141"/>
      <point x="824" y="163"/>
      <point x="848.5" y="174" type="qcurve" smooth="yes"/>
      <point x="873" y="185" type="line"/>
      <point x="845" y="28" type="line"/>
      <point x="835" y="23"/>
      <point x="800" y="8"/>
      <point x="691" y="-16"/>
      <point x="635" y="-16" type="qcurve" smooth="yes"/>
      <point x="499" y="-16"/>
      <point x="367" y="130"/>
      <point x="389" y="256" type="qcurve" smooth="yes"/>
      <point x="480" y="768" type="line"/>
      <point x="242" y="768" type="line"/>
    </contour>
  </outline>
</glyph>
<glyph name="l" format="2">
  <advance width="1024"/>
  <unicode hex="006C"/>
  <outline>
    <contour>
      <point x="269" y="1280" type="line"/>
      <point x="711" y="1280" type="line"/>
      <point x="530" y="254" type="line" smooth="yes"/>
      <point x="521" y="202"/>
      <point x="576" y="141"/>
      <point x="688" y="141"/>
      <point x="792" y="163"/>
      <point x="816.5" y="174" type="qcurve" smooth="yes"/>
      <point x="841" y="185" type="line"/>
      <point x="813" y="28" type="line"/>
      <point x="804" y="23"/>
      <point x="769" y="8"/>
      <point x="660" y="-16"/>
      <point x="604" y="-16" type="qcurve" smooth="yes"/>
      <point x="468" y="-16"/>
      <point x="335" y="129"/>
      <point x="357" y="254" type="qcurve" smooth="yes"/>
      <point x="510.363" y="1123" type="line"/>
      <point x="242" y="1123" type="line"/>
    </contour>
  </outline>
</glyph>
<glyph name="o" format="2">
  <advance width="1024"/>
  <unicode hex="006F"/>
  <outline>
    <contour>
      <point x="87" y="587" type="qcurve" smooth="yes"/>
      <point x="106" y="697"/>
      <point x="173" y="857"/>
      <point x="259" y="958"/>
      <point x="380" y="1017"/>
      <point x="512" y="1040"/>
      <point x="599" y="1040" type="qcurve" smooth="yes"/>
      <point x="805" y="1040"/>
      <point x="986" y="717"/>
      <point x="937" y="437" type="qcurve" smooth="yes"/>
      <point x="918" y="327"/>
      <point x="851" y="167"/>
      <point x="765" y="66"/>
      <point x="644" y="7"/>
      <point x="512" y="-16"/>
      <point x="425" y="-16" type="qcurve" smooth="yes"/>
      <point x="219" y="-16"/>
      <point x="38" y="307"/>
    </contour>
    <contour>
      <point x="573" y="883" type="qcurve" smooth="yes"/>
      <point x="440" y="883"/>
      <point x="286" y="741"/>
      <point x="254" y="557" type="qcurve" smooth="yes"/>
      <point x="220" y="364"/>
      <point x="326" y="141"/>
      <point x="451" y="141" type="qcurve" smooth="yes"/>
      <point x="584" y="141"/>
      <point x="738" y="283"/>
      <point x="770" y="467" type="qcurve" smooth="yes"/>
      <point x="804" y="660"/>
      <point x="698" y="883"/>
    </contour>
  </outline>
</glyph>
<glyph name="bar" format="2">
  <advance width="1024"/>
  <unicode hex="007C"/>
  <outline>
    <contour>
      <point x="276" y="-256" type="line"/>
      <point x="575" y="1437" type="line"/>
      <point x="748" y="1437" type="line"/>
      <point x="449" y="-256" type="line"/>
    </contour>
  </outline>
</glyph>
<glyph name="agave.Cheduck" format="2">
  <advance width="1024"/>
  <outline>
    <contour>
      <point x="896" y="0" type="line"/>
      <point x="726" y="0" type="line"/>
      <point x="726" y="520" type="line"/>
      <point x="644" y="504"/>
      <point x="512" y="504" type="qcurve" smooth="yes"/>
      <point x="324" y="504"/>
      <point x="128" y="687"/>
      <point x="128" y="902" type="qcurve" smooth="yes"/>
      <point x="128" y="1152" type="line"/>
      <point x="298" y="1152" type="line"/>
      <point x="298" y="902" type="line" smooth="yes"/>
      <point x="298" y="776"/>
      <point x="407" y="669"/>
      <point x="512" y="669" type="qcurve" smooth="yes"/>
      <point x="726" y="669" type="line"/>
      <point x="726" y="1152" type="line"/>
      <point x="896" y="1152" type="line"/>
    </contour>
  </outline>
</glyph>
<glyph name="agave.Dduck" format="2">
  <advance width="1024"/>
  <outline>
    <contour>
      <point x="128" y="1152" type="line"/>
      <point x="384" y="1152" type="line" smooth="yes"/>
      <point x="518" y="1152"/>
      <point x="718" y="1093"/>
      <point x="868" y="960"/>
      <point x="944" y="735"/>
      <point x="944" y="417"/>
      <point x="868" y="192"/>
      <point x="718" y="59"/>
      <point x="518" y="0"/>
      <point x="384" y="0" type="qcurve" smooth="yes"/>
      <point x="128" y="-0" type="line"/>
    </contour>
    <contour>
      <point x="298" y="995" type="line"/>
      <point x="298" y="157" type="line"/>
      <point x="384" y="157" type="line" smooth="yes"/>
      <point x="571" y="157"/>
      <point x="766" y="350"/>
      <point x="766" y="802"/>
      <point x="571" y="995"/>
      <point x="384" y="995" type="qcurve" smooth="yes"/>
    </contour>
  </outline>
</glyph>
<glyph name="agave.Fduck" format="2">
  <advance width="1024"/>
  <outline>
    <contour>
      <point x="160" y="1152" type="line"/>
      <point x="896" y="1152" type="line"/>
      <point x="896" y="995" type="line"/>
      <point x="330" y="995" type="line"/>
      <point x="330" y="669" type="line"/>
      <point x="864" y="669" type="line"/>
      <point x="864" y="512" type="line"/>
      <point x="330" y="512" type="line"/>
      <point x="330" y="0" type="line"/>
      <point x="160" y="0" type="line"/>
    </contour>
  </outline>
</glyph>
<glyph name="agave.Kduck" format="2">
  <advance width="1024"/>
  <outline>
    <contour>
      <point x="741" y="1152" type="line"/>
      <point x="960" y="1152" type="line"/>
      <point x="491" y="576" type="line"/>
      <point x="960" y="0" type="line"/>
      <point x="741" y="0" type="line"/>
      <point x="298" y="544" type="line"/>
      <point x="298" y="0" type="line"/>
      <point x="128" y="0" type="line"/>
      <point x="128" y="1152" type="line"/>
      <point x="298" y="1152" type="line"/>
      <point x="298" y="608" type="line"/>
    </contour>
  </outline>
</glyph>
<glyph name="agave.Mduck" format="2">
  <advance width="1024"/>
  <outline>
    <contour>
      <point x="64" y="1152" type="line"/>
      <point x="221" y="1152" type="line"/>
      <point x="512" y="702" type="line"/>
      <point x="803" y="1152" type="line"/>
      <point x="960" y="1152" type="line"/>
      <point x="960" y="0" type="line"/>
      <point x="803" y="0" type="line"/>
      <point x="803" y="883" type="line"/>
      <point x="563" y="512" type="line"/>
      <point x="461" y="512" type="line"/>
      <point x="221" y="883" type="line"/>
      <point x="221" y="0" type="line"/>
      <point x="64" y="0" type="line"/>
    </contour>
  </outline>
</glyph>
<glyph name="agave.Nduck" format="2">
  <advance width="1024"/>
  <outline>
    <contour>
      <point x="96" y="1152" type="line"/>
      <point x="300" y="1152" type="line"/>
      <point x="758" y="256" type="line"/>
      <point x="758" y="1152" type="line"/>
      <point x="928" y="1152" type="line"/>
      <point x="928" y="0" type="line"/>
      <point x="723" y="0" type="line"/>
      <point x="266" y="896" type="line"/>
      <point x="266" y="0" type="line"/>
      <point x="96" y="0" type="line"/>
    </contour>
  </outline>
</glyph>
<glyph name="agave.Otildeduck" format="2">
  <advance width="1024"/>
  <outline>
    <contour>
      <point x="631" y="1168"/>
      <point x="808" y="1107"/>
      <point x="941" y="971"/>
      <point x="1008" y="739"/>
      <point x="1008" y="413"/>
      <point x="941" y="181"/>
      <point x="808" y="45"/>
      <point x="631" y="-16"/>
      <point x="393" y="-16"/>
      <point x="216" y="45"/>
      <point x="83" y="181"/>
      <point x="16" y="413"/>
      <point x="16" y="739"/>
      <point x="83" y="971"/>
      <point x="216" y="1107"/>
      <point x="393" y="1168"/>
    </contour>
    <contour>
      <point x="369" y="1011"/>
      <point x="206" y="852"/>
      <point x="190" y="669" type="qcurve"/>
      <point x="834" y="669" type="line"/>
      <point x="818" y="852"/>
      <point x="655" y="1011"/>
    </contour>
    <contour>
      <point x="188" y="512" type="line"/>
      <point x="199" y="313"/>
      <point x="364" y="141"/>
      <point x="660" y="141"/>
      <point x="825" y="313"/>
      <point x="836" y="512" type="qcurve"/>
    </contour>
  </outline>
</glyph>
<glyph name="agave.Pduck" format="2">
  <advance width="1024"/>
  <outline>
    <contour>
      <point x="160" y="1152" type="line"/>
      <point x="604" y="1152" type="line" smooth="yes"/>
      <point x="762" y="1152"/>
      <point x="944" y="980"/>
      <point x="944" y="684"/>
      <point x="706" y="512"/>
      <point x="500" y="512" type="qcurve" smooth="yes"/>
      <point x="330" y="512" type="line"/>
      <point x="330" y="0" type="line"/>
      <point x="160" y="0" type="line"/>
    </contour>
    <contour>
      <point x="330" y="995" type="line"/>
      <point x="330" y="669" type="line"/>
      <point x="500" y="669" type="line" smooth="yes"/>
      <point x="627" y="669"/>
      <point x="774" y="756"/>
      <point x="774" y="908"/>
      <point x="683" y="995"/>
      <point x="604" y="995" type="qcurve" smooth="yes"/>
    </contour>
  </outline>
</glyph>
<glyph name="agave.Ucyrduck" format="2">
  <advance width="1024"/>
  <outline>
    <contour>
      <point x="805" y="1152" type="line"/>
      <point x="992" y="1152" type="line"/>
      <point x="571" y="233" type="line" smooth="yes"/>
      <point x="549" y="185"/>
      <point x="527" y="140"/>
      <point x="490" y="71"/>
      <point x="464" y="40"/>
      <point x="426" y="5"/>
      <point x="385" y="-8"/>
      <point x="360" y="-8" type="qcurve" smooth="yes"/>
      <point x="323" y="-8"/>
      <point x="255" y="-0"/>
      <point x="239.5" y="4" type="qcurve" smooth="yes"/>
      <point x="224" y="8" type="line"/>
      <point x="224" y="157" type="line"/>
      <point x="262" y="157"/>
      <point x="293" y="157"/>
      <point x="336" y="170"/>
      <point x="349" y="180"/>
      <point x="381" y="225"/>
      <point x="398" y="262"/>
      <point x="419" y="308" type="qcurve"/>
      <point x="32" y="1152" type="line"/>
      <point x="219" y="1152" type="line"/>
      <point x="512" y="512" type="line"/>
    </contour>
  </outline>
</glyph>
<glyph name="agave.Uduck" format="2">
  <advance width="1024"/>
  <outline>
    <contour>
      <point x="32" y="1152" type="line"/>
      <point x="202" y="1152" type="line"/>
      <point x="202" y="527" type="line" smooth="yes"/>
      <point x="202" y="309"/>
      <point x="337" y="141"/>
      <point x="687" y="141"/>
      <point x="822" y="309"/>
      <point x="822" y="527" type="qcurve" smooth="yes"/>
      <point x="822" y="1152" type="line"/>
      <point x="992" y="1152" type="line"/>
      <point x="992" y="527" type="line" smooth="yes"/>
      <point x="992" y="372"/>
      <point x="944" y="168"/>
      <point x="829" y="38"/>
      <point x="649" y="-16"/>
      <point x="375" y="-16"/>
      <point x="195" y="38"/>
      <point x="80" y="168"/>
      <point x="32" y="372"/>
      <point x="32" y="527" type="qcurve" smooth="yes"/>
    </contour>
  </outline>
</glyph>
<glyph name="agave.Uhornduck" format="2">
  <advance width="1024"/>
  <outline>
    <contour>
      <point x="854" y="1280" type="qcurve"/>
      <point x="1024" y="1280" type="line"/>
      <point x="1024" y="1199"/>
      <point x="993" y="1068"/>
      <point x="947" y="990"/>
      <point x="885" y="934"/>
      <point x="836" y="910"/>
      <point x="810" y="903" type="qcurve"/>
      <point x="810" y="576" type="line" smooth="yes"/>
      <point x="810" y="413"/>
      <point x="755" y="181"/>
      <point x="647" y="45"/>
      <point x="502" y="-16"/>
      <point x="308" y="-16"/>
      <point x="163" y="45"/>
      <point x="55" y="181"/>
      <point x="0" y="413"/>
      <point x="0" y="576" type="qcurve" smooth="yes"/>
      <point x="0" y="1152" type="line"/>
      <point x="170" y="1152" type="line"/>
      <point x="170" y="576" type="line"/>
      <point x="150" y="141"/>
      <point x="405" y="141" type="qcurve" smooth="yes"/>
      <point x="520" y="141"/>
      <point x="640" y="342"/>
      <point x="640" y="576" type="qcurve" smooth="yes"/>
      <point x="640" y="1152" type="line"/>
      <point x="810" y="1152" type="line"/>
      <point x="810" y="1062" type="line"/>
      <point x="854" y="1123"/>
    </contour>
  </outline>
</glyph>
<glyph name="agave.Vduck" format="2">
  <advance width="1024"/>
  <outline>
    <contour>
      <point x="64" y="1152" type="line"/>
      <point x="241" y="1152" type="line"/>
      <point x="481" y="354" type="line"/>
      <point x="512" y="177" type="line"/>
      <point x="543" y="354" type="line"/>
      <point x="783" y="1152" type="line"/>
      <point x="960" y="1152" type="line"/>
      <point x="614" y="0" type="line"/>
      <point x="410" y="0" type="line"/>
    </contour>
  </outline>
</glyph>
<glyph name="agave.diaresisduck" format="2">
  <advance width="1024"/>
  <outline>
    <contour>
      <point x="158" y="1392"/>
      <point x="224" y="1326"/>
      <point x="224" y="1234"/>
      <point x="158" y="1168"/>
      <point x="66" y="1168"/>
      <point x="0" y="1234"/>
      <point x="0" y="1326"/>
      <point x="66" y="1392"/>
    </contour>
    <contour>
      <point x="958" y="1392"/>
      <point x="1024" y="1326"/>
      <point x="1024" y="1234"/>
      <point x="958" y="1168"/>
      <point x="866" y="1168"/>
      <point x="800" y="1234"/>
      <point x="800" y="1326"/>
      <point x="866" y="1392"/>
    </contour>
  </outline>
</glyph>
